<svg width="18" height="18" viewBox="0 0 18 18" fill="none" xmlns="http://www.w3.org/2000/svg">
<path d="M13.2188 1.12499C13.8809 1.12499 14.502 1.25097 15.082 1.50292C15.6621 1.75487 16.1689 2.09472 16.6025 2.52245C17.0361 2.95019 17.376 3.45702 17.6221 4.04296C17.8682 4.6289 17.9941 5.24999 18 5.90624C18 6.54491 17.8799 7.15722 17.6396 7.74315C17.3994 8.32909 17.0537 8.84472 16.6025 9.29003L9 16.8838L1.39746 9.29003C0.952148 8.84472 0.609375 8.32909 0.369141 7.74315C0.128906 7.15722 0.00585938 6.54491 0 5.90624C0 5.24999 0.123047 4.63183 0.369141 4.05175C0.615234 3.47167 0.958008 2.96483 1.39746 2.53124C1.83691 2.09765 2.34375 1.75487 2.91797 1.50292C3.49219 1.25097 4.11328 1.12499 4.78125 1.12499C5.26758 1.12499 5.70117 1.18066 6.08203 1.29198C6.46289 1.40331 6.81445 1.55566 7.13672 1.74901C7.45898 1.94237 7.76953 2.17968 8.06836 2.46093C8.36719 2.74218 8.67773 3.04394 9 3.3662C9.32227 3.03808 9.62988 2.73632 9.92285 2.46093C10.2158 2.18554 10.5264 1.95116 10.8545 1.7578C11.1826 1.56444 11.5371 1.40917 11.918 1.29198C12.2988 1.1748 12.7324 1.11913 13.2188 1.12499ZM15.8027 8.49022C16.1484 8.14452 16.4121 7.74901 16.5938 7.3037C16.7754 6.85839 16.8662 6.39257 16.8662 5.90624C16.8662 5.39647 16.7725 4.92187 16.585 4.48241C16.3975 4.04296 16.1396 3.65917 15.8115 3.33105C15.4834 3.00292 15.0967 2.74804 14.6514 2.5664C14.2061 2.38476 13.7285 2.29101 13.2188 2.28515C12.7266 2.28515 12.29 2.36132 11.9092 2.51366C11.5283 2.66601 11.1768 2.87108 10.8545 3.1289C10.5322 3.38671 10.2246 3.67089 9.93164 3.98144C9.63867 4.29198 9.32812 4.61718 9 4.95702C8.68359 4.64062 8.37598 4.32128 8.07715 3.99901C7.77832 3.67675 7.46777 3.38671 7.14551 3.1289C6.82324 2.87108 6.46875 2.66015 6.08203 2.49608C5.69531 2.33202 5.26172 2.24999 4.78125 2.24999C4.27734 2.24999 3.80273 2.34374 3.35742 2.53124C2.91211 2.71874 2.52539 2.97948 2.19727 3.31347C1.86914 3.64745 1.6084 4.0371 1.41504 4.48241C1.22168 4.92773 1.125 5.40233 1.125 5.90624C1.125 6.39257 1.21582 6.85839 1.39746 7.3037C1.5791 7.74901 1.8457 8.14452 2.19727 8.49022L9 15.293L15.8027 8.49022Z" fill="white"/>
</svg>
